<svg width="20" height="20" viewBox="0 0 20 20" fill="none" xmlns="http://www.w3.org/2000/svg"><path fill-rule="evenodd" clip-rule="evenodd" d="M12.4 3.8h-.8c-1.01 0-1.659.001-2.152.042-.472.038-.641.103-.72.143a1.7 1.7 0 0 0-.743.743c-.04.079-.105.247-.143.72-.014.164-.023.346-.029.552H8.4c1.96 0 2.94 0 3.689.381a3.5 3.5 0 0 1 1.53 1.53C14 8.66 14 9.64 14 11.6v.8c0 1.96 0 2.94-.382 3.689a3.5 3.5 0 0 1-1.529 1.53C11.34 18 10.36 18 8.4 18h-.8c-1.96 0-2.94 0-3.689-.381a3.5 3.5 0 0 1-1.53-1.53C2 15.34 2 14.36 2 12.4v-.8c0-1.96 0-2.94.381-3.689a3.5 3.5 0 0 1 1.53-1.53c.512-.26 1.133-.343 2.101-.369.026-.968.109-1.589.37-2.101a3.5 3.5 0 0 1 1.53-1.53C8.66 2 9.64 2 11.6 2h.8c1.96 0 2.94 0 3.69.381a3.5 3.5 0 0 1 1.529 1.53C18 4.66 18 5.64 18 7.6v.8c0 1.96 0 2.94-.381 3.689a3.5 3.5 0 0 1-1.53 1.53c-.512.26-1.132.343-2.1.369.011-.447.011-.969.011-1.588v-.213c.207-.006.388-.015.552-.029.473-.038.642-.103.72-.143a1.7 1.7 0 0 0 .743-.743c.04-.079.105-.248.143-.72.04-.493.042-1.142.042-2.152v-.8c0-1.01-.001-1.659-.041-2.152-.04-.473-.104-.641-.144-.72a1.7 1.7 0 0 0-.743-.743c-.078-.04-.247-.105-.72-.143-.493-.04-1.142-.042-2.152-.042zm-4.8 4h.8c1.01 0 1.659.001 2.152.042.473.038.642.103.72.143.32.163.58.423.743.743.04.079.105.247.143.72.04.493.042 1.142.042 2.152v.8c0 1.01-.001 1.659-.042 2.152-.038.473-.103.642-.143.72a1.7 1.7 0 0 1-.743.743c-.079.04-.248.105-.72.143-.493.04-1.142.042-2.152.042h-.8c-1.01 0-1.659-.001-2.152-.042-.473-.038-.641-.103-.72-.143a1.7 1.7 0 0 1-.743-.743c-.04-.079-.105-.248-.143-.72-.04-.493-.042-1.142-.042-2.152v-.8c0-1.01.001-1.659.042-2.152.038-.473.103-.641.143-.72a1.7 1.7 0 0 1 .743-.743c.079-.04.247-.105.72-.143C5.94 7.802 6.59 7.8 7.6 7.8z" fill="currentColor"></path></svg>