<svg width="24" height="24" viewBox="0 0 24 24" fill="none" xmlns="http://www.w3.org/2000/svg"><path fill-rule="evenodd" clip-rule="evenodd" d="M18.334 4.03c1.24-.478 2.518.608 2.241 1.91l-2.64 12.447a1.805 1.805 0 0 1-2.838 1.077l-3.221-2.38-1.518 1.476c-.84.817-2.25.457-2.59-.667L6.53 13.818l-3.623-1.13c-1.278-.4-1.343-2.191-.088-2.675L18.334 4.03zM7.89 12.464c.101.101.18.228.224.374l1.264 4.163L10.408 16l-.688-.509a1.743 1.743 0 0 1-.135-2.697l2.456-2.217 1.46-1.318.604.668.603.668-1.46 1.318-2.405 2.17 1.47 1.086a.947.947 0 0 1 .034.025l3.82 2.822.001.001h.002l.003-.001v-.003l2.594-12.221-14.274 5.505 3.027.944c.145.045.27.123.37.224zm6.215-2.538l.603.668A.9.9 0 1 0 13.5 9.26l.604.668z" fill="currentColor"></path></svg>